<svg xmlns="http://www.w3.org/2000/svg" xmlns:xlink="http://www.w3.org/1999/xlink" width="500" zoomAndPan="magnify" viewBox="0 0 375 374.999991" height="500" preserveAspectRatio="xMidYMid meet" version="1.0"><defs><g/><clipPath id="b364f7b19f"><path d="M 37.5 18.691406 L 352 18.691406 L 352 98 L 37.5 98 Z M 37.5 18.691406 " clip-rule="nonzero"/></clipPath><clipPath id="dbacbcde1f"><path d="M 327 198 L 367.5 198 L 367.5 239 L 327 239 Z M 327 198 " clip-rule="nonzero"/></clipPath><clipPath id="7364067040"><path d="M 62 128 L 323 128 L 323 359.941406 L 62 359.941406 Z M 62 128 " clip-rule="nonzero"/></clipPath><clipPath id="44c563b441"><path d="M 100.300781 205.304688 L 164.050781 205.304688 L 164.050781 244.304688 L 100.300781 244.304688 Z M 100.300781 205.304688 " clip-rule="nonzero"/></clipPath><clipPath id="07b9e35100"><path d="M 221.078125 205.304688 L 284.746094 205.304688 L 284.746094 244.304688 L 221.078125 244.304688 Z M 221.078125 205.304688 " clip-rule="nonzero"/></clipPath><clipPath id="a17ca99a4c"><path d="M 272.621094 291.039062 L 284.746094 291.039062 L 284.746094 302.59375 L 272.621094 302.59375 Z M 272.621094 291.039062 " clip-rule="nonzero"/></clipPath><clipPath id="9848957e36"><path d="M 278.683594 291.039062 L 280.117188 295.453125 L 284.746094 295.453125 L 281 298.179688 L 282.429688 302.59375 L 278.683594 299.867188 L 274.9375 302.59375 L 276.367188 298.179688 L 272.621094 295.453125 L 277.253906 295.453125 Z M 278.683594 291.039062 " clip-rule="nonzero"/></clipPath><clipPath id="15db38464c"><path d="M 100.300781 294.363281 L 112.425781 294.363281 L 112.425781 305.917969 L 100.300781 305.917969 Z M 100.300781 294.363281 " clip-rule="nonzero"/></clipPath><clipPath id="ec00fd10f1"><path d="M 106.363281 294.363281 L 107.796875 298.777344 L 112.425781 298.777344 L 108.679688 301.503906 L 110.113281 305.917969 L 106.363281 303.191406 L 102.617188 305.917969 L 104.050781 301.503906 L 100.300781 298.777344 L 104.933594 298.777344 Z M 106.363281 294.363281 " clip-rule="nonzero"/></clipPath></defs><rect x="-37.5" width="450" fill="#ffffff" y="-37.499999" height="449.999989" fill-opacity="1"/><rect x="-37.5" width="450" fill="#ffffff" y="-37.499999" height="449.999989" fill-opacity="1"/><g fill="#d62729" fill-opacity="1"><g transform="translate(276.744382, 161.219038)"><g><path d="M 5 -3.515625 L 5.671875 -4.03125 L 7.4375 -1.75 L 6.765625 -1.234375 L 6.203125 -1.734375 L 4.609375 -0.515625 L 6.328125 1.734375 L 7.921875 0.515625 L 7.59375 -0.15625 L 8.265625 -0.671875 L 8.703125 -0.078125 L 9.546875 1.015625 L 10.015625 1.609375 L 9.34375 2.125 L 8.765625 1.609375 L 4.8125 4.65625 L 5.15625 5.34375 L 4.5 5.84375 L 2.75 3.5625 L 3.40625 3.0625 L 3.96875 3.5625 L 5.484375 2.390625 L 3.765625 0.140625 L 2.25 1.3125 L 2.578125 1.984375 L 1.921875 2.484375 L 0.15625 0.203125 L 0.8125 -0.296875 L 1.390625 0.203125 L 5.34375 -2.84375 Z M 5 -3.515625 "/></g></g></g><g fill="#d62729" fill-opacity="1"><g transform="translate(281.797552, 167.878955)"><g><path d="M 5.15625 2.3125 L 3.875 0.34375 L 2.203125 1.4375 L 3.421875 3.3125 L 4.171875 2.890625 L 4.75 3.78125 L 3.15625 4.828125 L 0.140625 0.21875 L 0.828125 -0.234375 L 1.375 0.3125 L 5.546875 -2.421875 L 5.25 -3.125 L 5.96875 -3.578125 L 6.375 -2.953125 L 8.984375 1.03125 L 7.375 2.0625 L 6.78125 1.15625 L 7.453125 0.65625 L 6.234375 -1.203125 L 4.765625 -0.234375 L 6.046875 1.734375 Z M 5.15625 2.3125 "/></g></g></g><g fill="#d62729" fill-opacity="1"><g transform="translate(285.597692, 173.724335)"><g><path d="M 0.8125 -0.234375 L 1.125 0.171875 L 7.453125 -0.890625 L 8.140625 0.34375 L 3.859375 5.109375 L 4.015625 5.578125 L 3.296875 5.984375 L 2.15625 3.90625 L 2.875 3.5 L 3.203125 3.90625 L 3.875 3.15625 L 2.796875 1.1875 L 1.8125 1.375 L 1.953125 1.84375 L 1.234375 2.25 L 0.09375 0.171875 Z M 3.859375 0.96875 L 4.625 2.375 L 6.390625 0.5 L 6.375 0.46875 Z M 3.859375 0.96875 "/></g></g></g><g fill="#d62729" fill-opacity="1"><g transform="translate(289.310131, 180.513136)"><g><path d="M 6.6875 -0.0625 L 6.375 -0.5 L 3.078125 2.34375 L 2.78125 2.5625 L 2.796875 2.59375 L 3.15625 2.5 L 7.484375 1.921875 L 7.34375 1.390625 L 8.109375 1.046875 L 9.15625 3.375 L 8.390625 3.71875 L 8.078125 3.203125 L 1.75 3.84375 L 1.15625 2.546875 L 5.78125 -1.828125 L 5.625 -2.390625 L 6.390625 -2.734375 L 7.453125 -0.40625 Z M 6.6875 -0.0625 "/></g></g></g><g fill="#d62729" fill-opacity="1"><g transform="translate(292.474119, 187.564578)"><g><path d="M 6.6875 0.53125 L 6.4375 0.03125 L 4.65625 1.828125 L 4.65625 1.859375 L 7.1875 2.09375 L 7.0625 1.53125 L 7.859375 1.234375 L 8.75 3.703125 L 7.953125 4 L 7.671875 3.46875 L 3.671875 2.90625 L 2.296875 3.40625 L 2.40625 4.1875 L 1.625 4.46875 L 0.640625 1.765625 L 1.421875 1.484375 L 1.828125 2.125 L 3.265625 1.609375 L 5.921875 -1.34375 L 5.796875 -1.9375 L 6.59375 -2.234375 L 7.484375 0.234375 Z M 6.6875 0.53125 "/></g></g></g><g fill="#d62729" fill-opacity="1"><g transform="translate(294.959973, 194.607561)"><g/></g></g><g fill="#d62729" fill-opacity="1"><g transform="translate(295.927247, 197.649909)"><g><path d="M 7.5625 1.625 C 7.769531 2.445312 7.675781 3.191406 7.28125 3.859375 C 6.882812 4.523438 6.269531 4.960938 5.4375 5.171875 L 4.34375 5.4375 C 3.507812 5.644531 2.765625 5.546875 2.109375 5.140625 C 1.453125 4.734375 1.019531 4.117188 0.8125 3.296875 L 0.0625 0.265625 L 0.859375 0.0625 L 1.1875 0.734375 L 6.03125 -0.46875 L 6 -1.203125 L 6.8125 -1.40625 L 6.984375 -0.703125 Z M 6.28125 0.9375 L 1.609375 2.09375 L 1.828125 2.984375 C 1.953125 3.460938 2.207031 3.796875 2.59375 3.984375 C 2.988281 4.179688 3.457031 4.210938 4 4.078125 L 5.109375 3.8125 C 5.628906 3.675781 6.019531 3.429688 6.28125 3.078125 C 6.550781 2.722656 6.625 2.304688 6.5 1.828125 Z M 6.28125 0.9375 "/></g></g></g><g fill="#d62729" fill-opacity="1"><g transform="translate(297.688706, 204.899376)"><g><path d="M 7.421875 2.1875 C 7.554688 2.96875 7.484375 3.609375 7.203125 4.109375 C 6.921875 4.617188 6.46875 4.925781 5.84375 5.03125 C 5.488281 5.082031 5.164062 5.035156 4.875 4.890625 C 4.59375 4.753906 4.34375 4.519531 4.125 4.1875 C 4.070312 4.613281 3.921875 4.9375 3.671875 5.15625 C 3.421875 5.382812 3.085938 5.535156 2.671875 5.609375 L 2.34375 5.65625 C 2.1875 5.6875 2.070312 5.738281 2 5.8125 C 1.925781 5.894531 1.894531 6 1.90625 6.125 L 1.90625 6.296875 L 1.078125 6.4375 L 0.96875 5.734375 C 0.882812 5.273438 0.945312 4.9375 1.15625 4.71875 C 1.375 4.5 1.675781 4.359375 2.0625 4.296875 L 2.453125 4.234375 C 2.785156 4.171875 3.03125 4.03125 3.1875 3.8125 C 3.351562 3.601562 3.410156 3.34375 3.359375 3.03125 L 3.171875 1.90625 L 1.375 2.21875 L 1.328125 2.953125 L 0.515625 3.09375 L 0.046875 0.265625 L 0.859375 0.125 L 1.140625 0.828125 L 6.0625 0 L 6.078125 -0.75 L 6.90625 -0.890625 L 7.03125 -0.171875 Z M 4.25 1.734375 L 4.40625 2.671875 C 4.46875 3.054688 4.59375 3.328125 4.78125 3.484375 C 4.976562 3.648438 5.234375 3.707031 5.546875 3.65625 C 5.847656 3.601562 6.070312 3.46875 6.21875 3.25 C 6.375 3.03125 6.421875 2.738281 6.359375 2.375 L 6.203125 1.40625 Z M 4.25 1.734375 "/></g></g></g><g fill="#d62729" fill-opacity="1"><g transform="translate(298.863823, 212.305999)"><g><path d="M 6.109375 -0.390625 L 6.9375 -0.484375 L 7.25 2.375 L 6.421875 2.46875 L 6.1875 1.734375 L 1.234375 2.265625 L 1.171875 3.03125 L 0.34375 3.125 L 0.03125 0.265625 L 0.859375 0.171875 L 1.09375 0.890625 L 6.046875 0.359375 Z M 6.109375 -0.390625 "/></g></g></g><g fill="#d62729" fill-opacity="1"><g transform="translate(299.344949, 216.457016)"><g><path d="M 6.234375 2.40625 L 6.125 1.890625 L 2 3.3125 L 1.640625 3.421875 L 1.640625 3.453125 L 2.015625 3.5 L 6.25 4.5625 L 6.3125 4.015625 L 7.140625 3.984375 L 7.265625 6.515625 L 6.4375 6.546875 L 6.328125 5.984375 L 0.203125 4.21875 L 0.140625 2.796875 L 6.0625 0.453125 L 6.109375 -0.140625 L 6.9375 -0.171875 L 7.0625 2.375 Z M 6.234375 2.40625 "/></g></g></g><g fill="#d62729" fill-opacity="1"><g transform="translate(299.63823, 224.232377)"><g><path d="M 6.109375 0.34375 L 6.953125 0.359375 L 6.90625 3.234375 L 6.0625 3.21875 L 5.9375 2.46875 L 0.953125 2.40625 L 0.78125 3.15625 L -0.046875 3.140625 L 0 0.265625 L 0.828125 0.28125 L 0.96875 1.015625 L 5.953125 1.078125 Z M 6.109375 0.34375 "/></g></g></g><g fill="#d62729" fill-opacity="1"><g transform="translate(299.626735, 228.402769)"><g><path d="M 6.375 7.890625 L 5.53125 7.828125 L 5.453125 7.0625 L -0.5 6.609375 L -0.390625 5.21875 L 4.484375 2.796875 L 4.46875 2.765625 L 0.796875 2.484375 L 0.59375 3.1875 L -0.234375 3.125 L -0.015625 0.265625 L 0.8125 0.328125 L 0.90625 1.078125 L 5.875 1.453125 L 6.078125 0.734375 L 6.921875 0.796875 L 6.859375 1.53125 L 6.75 2.9375 L 1.875 5.359375 L 1.890625 5.390625 L 5.5625 5.671875 L 5.75 4.953125 L 6.59375 5.015625 L 6.4375 7.140625 Z M 6.375 7.890625 "/></g></g></g><g fill="#d62729" fill-opacity="1"><g transform="translate(298.95354, 236.642562)"><g><path d="M -0.15625 6.078125 C -0.34375 5.816406 -0.488281 5.457031 -0.59375 5 C -0.707031 4.550781 -0.710938 4 -0.609375 3.34375 C -0.460938 2.414062 -0.0351562 1.707031 0.671875 1.21875 C 1.378906 0.726562 2.234375 0.5625 3.234375 0.71875 L 3.453125 0.765625 C 4.484375 0.921875 5.273438 1.335938 5.828125 2.015625 C 6.390625 2.691406 6.597656 3.488281 6.453125 4.40625 C 6.367188 4.945312 6.207031 5.425781 5.96875 5.84375 C 5.726562 6.269531 5.4375 6.601562 5.09375 6.84375 L 3.703125 6.625 L 3.875 5.609375 L 4.828125 5.5625 C 4.953125 5.46875 5.0625 5.316406 5.15625 5.109375 C 5.25 4.910156 5.316406 4.675781 5.359375 4.40625 C 5.453125 3.8125 5.300781 3.3125 4.90625 2.90625 C 4.519531 2.5 3.96875 2.242188 3.25 2.140625 L 3.015625 2.09375 C 2.304688 1.988281 1.71875 2.066406 1.25 2.328125 C 0.78125 2.585938 0.5 3.023438 0.40625 3.640625 C 0.363281 3.921875 0.351562 4.148438 0.375 4.328125 C 0.394531 4.515625 0.429688 4.660156 0.484375 4.765625 L 1.65625 4.9375 L 1.875 3.96875 L 2.828125 4.125 L 2.46875 6.484375 Z M -0.15625 6.078125 "/></g></g></g><g fill="#d62729" fill-opacity="1"><g transform="translate(297.770786, 243.803133)"><g/></g></g><g fill="#d62729" fill-opacity="1"><g transform="translate(297.138217, 246.945199)"><g><path d="M 3.171875 6.5625 L 3.4375 5.5625 L 4.40625 5.625 C 4.507812 5.519531 4.617188 5.363281 4.734375 5.15625 C 4.847656 4.945312 4.941406 4.71875 5.015625 4.46875 C 5.109375 4.101562 5.101562 3.796875 5 3.546875 C 4.90625 3.304688 4.726562 3.15625 4.46875 3.09375 C 4.238281 3.03125 4.019531 3.082031 3.8125 3.25 C 3.613281 3.425781 3.367188 3.753906 3.078125 4.234375 C 2.679688 4.921875 2.257812 5.410156 1.8125 5.703125 C 1.363281 5.992188 0.867188 6.070312 0.328125 5.9375 C -0.242188 5.78125 -0.632812 5.425781 -0.84375 4.875 C -1.0625 4.332031 -1.070312 3.691406 -0.875 2.953125 C -0.738281 2.410156 -0.53125 1.945312 -0.25 1.5625 C 0.03125 1.1875 0.359375 0.894531 0.734375 0.6875 L 2.140625 1.0625 L 1.875 2.109375 L 0.875 1.984375 C 0.726562 2.097656 0.585938 2.257812 0.453125 2.46875 C 0.316406 2.675781 0.210938 2.925781 0.140625 3.21875 C 0.046875 3.582031 0.046875 3.878906 0.140625 4.109375 C 0.242188 4.347656 0.421875 4.5 0.671875 4.5625 C 0.929688 4.632812 1.160156 4.597656 1.359375 4.453125 C 1.566406 4.316406 1.804688 4.035156 2.078125 3.609375 C 2.515625 2.867188 2.941406 2.335938 3.359375 2.015625 C 3.785156 1.691406 4.269531 1.601562 4.8125 1.75 C 5.363281 1.894531 5.75 2.238281 5.96875 2.78125 C 6.195312 3.332031 6.226562 3.960938 6.0625 4.671875 C 5.925781 5.179688 5.722656 5.625 5.453125 6 C 5.179688 6.382812 4.878906 6.691406 4.546875 6.921875 Z M 3.171875 6.5625 "/></g></g></g><g fill="#d62729" fill-opacity="1"><g transform="translate(295.428464, 253.39545)"><g><path d="M 2.453125 7.125 L 2.78125 6.125 L 3.703125 6.296875 C 3.878906 6.210938 4.039062 6.085938 4.1875 5.921875 C 4.332031 5.753906 4.453125 5.535156 4.546875 5.265625 C 4.734375 4.691406 4.664062 4.175781 4.34375 3.71875 C 4.03125 3.257812 3.539062 2.921875 2.875 2.703125 L 2.65625 2.625 C 1.976562 2.394531 1.378906 2.363281 0.859375 2.53125 C 0.335938 2.707031 -0.015625 3.070312 -0.203125 3.625 C -0.285156 3.894531 -0.328125 4.148438 -0.328125 4.390625 C -0.328125 4.628906 -0.285156 4.828125 -0.203125 4.984375 L 0.640625 5.40625 L 0.3125 6.40625 L -0.984375 5.96875 C -1.210938 5.59375 -1.347656 5.164062 -1.390625 4.6875 C -1.429688 4.21875 -1.363281 3.726562 -1.1875 3.21875 C -0.894531 2.332031 -0.347656 1.710938 0.453125 1.359375 C 1.265625 1.003906 2.148438 0.988281 3.109375 1.3125 L 3.328125 1.390625 C 4.285156 1.710938 4.972656 2.253906 5.390625 3.015625 C 5.804688 3.785156 5.867188 4.613281 5.578125 5.5 C 5.398438 6.007812 5.148438 6.4375 4.828125 6.78125 C 4.503906 7.132812 4.148438 7.398438 3.765625 7.578125 Z M 2.453125 7.125 "/></g></g></g><g fill="#d62729" fill-opacity="1"><g transform="translate(293.170278, 260.075982)"><g><path d="M 5.515625 2.640625 L 6.28125 2.984375 L 5.15625 5.625 L 4.390625 5.28125 L 4.546875 4.5625 L 2.71875 3.78125 L 1.609375 6.375 L 3.4375 7.15625 L 3.859375 6.53125 L 4.625 6.875 L 4.34375 7.546875 L 3.796875 8.828125 L 3.5 9.515625 L 2.734375 9.171875 L 2.890625 8.4375 L -1.6875 6.484375 L -2.125 7.109375 L -2.890625 6.78125 L -1.765625 4.140625 L -1 4.46875 L -1.140625 5.203125 L 0.609375 5.953125 L 1.71875 3.359375 L -0.03125 2.609375 L -0.46875 3.21875 L -1.234375 2.890625 L -0.109375 0.25 L 0.65625 0.578125 L 0.515625 1.3125 L 5.09375 3.265625 Z M 5.515625 2.640625 "/></g></g></g><g fill="#d62729" fill-opacity="1"><g transform="translate(289.853539, 267.738388)"><g><path d="M -0.046875 7.453125 C -0.953125 6.972656 -1.5625 6.320312 -1.875 5.5 C -2.1875 4.675781 -2.125 3.851562 -1.6875 3.03125 C -1.25 2.1875 -0.601562 1.660156 0.25 1.453125 C 1.101562 1.253906 1.984375 1.394531 2.890625 1.875 L 2.984375 1.921875 C 3.878906 2.390625 4.484375 3.035156 4.796875 3.859375 C 5.117188 4.679688 5.0625 5.507812 4.625 6.34375 C 4.1875 7.175781 3.535156 7.691406 2.671875 7.890625 C 1.816406 8.097656 0.941406 7.96875 0.046875 7.5 Z M 0.6875 6.28125 C 1.332031 6.625 1.921875 6.765625 2.453125 6.703125 C 2.992188 6.648438 3.398438 6.363281 3.671875 5.84375 C 3.941406 5.320312 3.945312 4.828125 3.6875 4.359375 C 3.425781 3.898438 2.972656 3.5 2.328125 3.15625 L 2.234375 3.109375 C 1.585938 2.765625 1 2.617188 0.46875 2.671875 C -0.0625 2.722656 -0.460938 3.007812 -0.734375 3.53125 C -1.003906 4.039062 -1.007812 4.53125 -0.75 5 C -0.5 5.476562 -0.0507812 5.890625 0.59375 6.234375 Z M 0.6875 6.28125 "/></g></g></g><g fill="#d62729" fill-opacity="1"><g transform="translate(286.279278, 274.480715)"><g><path d="M -0.640625 7.421875 C -1.503906 6.878906 -2.054688 6.1875 -2.296875 5.34375 C -2.546875 4.5 -2.421875 3.679688 -1.921875 2.890625 C -1.421875 2.085938 -0.738281 1.613281 0.125 1.46875 C 0.988281 1.332031 1.851562 1.535156 2.71875 2.078125 L 2.8125 2.140625 C 3.675781 2.679688 4.234375 3.375 4.484375 4.21875 C 4.742188 5.0625 4.625 5.878906 4.125 6.671875 C 3.625 7.472656 2.9375 7.941406 2.0625 8.078125 C 1.1875 8.222656 0.316406 8.023438 -0.546875 7.484375 Z M 0.203125 6.3125 C 0.828125 6.695312 1.40625 6.878906 1.9375 6.859375 C 2.46875 6.847656 2.890625 6.59375 3.203125 6.09375 C 3.515625 5.601562 3.554688 5.113281 3.328125 4.625 C 3.109375 4.144531 2.6875 3.710938 2.0625 3.328125 L 1.96875 3.265625 C 1.351562 2.878906 0.78125 2.691406 0.25 2.703125 C -0.28125 2.722656 -0.703125 2.976562 -1.015625 3.46875 C -1.328125 3.957031 -1.367188 4.445312 -1.140625 4.9375 C -0.921875 5.425781 -0.503906 5.863281 0.109375 6.25 Z M 0.203125 6.3125 "/></g></g></g><g fill="#d62729" fill-opacity="1"><g transform="translate(282.170652, 280.933398)"><g><path d="M -0.15625 0.21875 L 0.515625 0.703125 L 0.203125 1.390625 L 4.21875 4.34375 L 4.765625 3.828125 L 5.453125 4.328125 L 5.015625 4.921875 L 4.1875 6.046875 L 3.75 6.640625 L 3.0625 6.140625 L 3.390625 5.46875 L -0.5625 2.5625 L -1.71875 4.140625 L -1.0625 4.71875 L -1.6875 5.578125 L -3.25 4.4375 Z M -0.15625 0.21875 "/></g></g></g><g fill="#d62729" fill-opacity="1"><g transform="translate(278.25952, 286.173924)"><g/></g></g><g clip-path="url(#b364f7b19f)"><path fill="#d62729" d="M 111.621094 97.820312 C 111.210938 97.820312 110.789062 97.753906 110.382812 97.621094 L 40.253906 74.625 C 38.613281 74.085938 37.503906 72.554688 37.503906 70.824219 C 37.503906 69.09375 38.617188 67.5625 40.261719 67.027344 L 187.578125 19.03125 C 188.359375 18.777344 189.203125 18.769531 189.984375 19.007812 L 348.582031 67.777344 C 350.253906 68.292969 351.402344 69.847656 351.402344 71.605469 C 351.398438 73.359375 350.253906 74.910156 348.574219 75.421875 L 278.445312 96.839844 C 276.351562 97.480469 274.109375 96.296875 273.464844 94.179688 C 272.824219 92.066406 274.007812 89.835938 276.117188 89.191406 L 333.773438 71.582031 L 188.851562 27.023438 L 54.355469 70.839844 L 112.863281 90.023438 C 114.960938 90.710938 116.101562 92.96875 115.417969 95.0625 C 114.863281 96.75 113.300781 97.820312 111.625 97.820312 Z M 111.621094 97.820312 " fill-opacity="1" fill-rule="evenodd"/></g><path fill="#d62729" d="M 347.40625 206.664062 C 345.203125 206.664062 343.417969 204.871094 343.417969 202.667969 L 343.417969 71.601562 C 343.417969 69.394531 345.207031 67.601562 347.40625 67.601562 C 349.605469 67.601562 351.394531 69.394531 351.394531 71.601562 L 351.394531 202.664062 C 351.394531 204.875 349.609375 206.664062 347.40625 206.664062 Z M 347.40625 206.664062 " fill-opacity="1" fill-rule="evenodd"/><g clip-path="url(#dbacbcde1f)"><path fill="#d62729" d="M 347.40625 238.949219 C 336.320312 238.949219 327.300781 229.914062 327.300781 218.8125 C 327.300781 207.703125 336.320312 198.667969 347.40625 198.667969 C 358.488281 198.667969 367.511719 207.707031 367.511719 218.8125 C 367.511719 229.914062 358.488281 238.949219 347.40625 238.949219 Z M 347.40625 206.664062 C 340.71875 206.664062 335.28125 212.113281 335.28125 218.8125 C 335.28125 225.507812 340.71875 230.957031 347.40625 230.957031 C 354.089844 230.957031 359.527344 225.507812 359.527344 218.8125 C 359.527344 212.113281 354.089844 206.664062 347.40625 206.664062 Z M 347.40625 206.664062 " fill-opacity="1" fill-rule="evenodd"/></g><g clip-path="url(#7364067040)"><path fill="#2c2d59" d="M 192.292969 359.851562 C 120.605469 359.851562 62.285156 301.425781 62.285156 229.613281 C 62.285156 190.875 79.335938 154.40625 109.066406 129.5625 C 110.253906 128.570312 111.914062 128.351562 113.3125 129.011719 C 114.714844 129.671875 115.613281 131.082031 115.613281 132.632812 L 115.613281 148.035156 C 115.613281 150.242188 113.824219 152.03125 111.621094 152.03125 C 109.421875 152.03125 107.632812 150.242188 107.632812 148.035156 L 107.632812 141.582031 C 83.78125 164.585938 70.261719 196.203125 70.261719 229.613281 C 70.261719 297.019531 125.003906 351.859375 192.292969 351.859375 C 259.582031 351.859375 314.324219 297.019531 314.324219 229.613281 C 314.324219 198.511719 302.378906 168.519531 281.269531 145.960938 L 281.269531 148.039062 C 281.269531 149.265625 280.703125 150.421875 279.738281 151.183594 C 278.777344 151.941406 277.515625 152.214844 276.328125 151.921875 C 274.972656 151.585938 273.617188 151.261719 272.261719 150.941406 C 270.117188 150.4375 268.785156 148.289062 269.285156 146.140625 C 269.726562 144.257812 271.460938 142.996094 273.285156 143.058594 L 273.285156 136.402344 C 273.285156 134.816406 274.21875 133.386719 275.664062 132.746094 C 277.105469 132.105469 278.796875 132.382812 279.964844 133.453125 C 306.867188 158.082031 322.296875 193.128906 322.296875 229.613281 C 322.300781 301.425781 263.976562 359.851562 192.292969 359.851562 Z M 192.292969 359.851562 " fill-opacity="1" fill-rule="evenodd"/></g><path fill="#2c2d59" d="M 192.292969 326.023438 C 139.226562 326.023438 96.050781 282.773438 96.050781 229.617188 C 96.050781 176.578125 139.125 133.328125 192.070312 133.207031 L 192.589844 133.207031 C 245.5 133.375 288.535156 176.621094 288.535156 229.617188 C 288.539062 282.773438 245.363281 326.023438 192.292969 326.023438 Z M 192.578125 141.199219 L 192.078125 141.199219 C 143.535156 141.308594 104.027344 180.972656 104.027344 229.613281 C 104.027344 278.363281 143.621094 318.027344 192.292969 318.027344 C 240.957031 318.027344 280.550781 278.363281 280.550781 229.613281 C 280.554688 181.015625 241.085938 141.355469 192.578125 141.199219 Z M 192.578125 141.199219 " fill-opacity="1" fill-rule="evenodd"/><path fill="#2c2d59" d="M 279.171875 325.058594 C 278.152344 325.058594 277.132812 324.667969 276.351562 323.890625 L 252.464844 299.960938 C 250.90625 298.398438 250.90625 295.863281 252.464844 294.304688 C 254.027344 292.746094 256.554688 292.742188 258.109375 294.304688 L 281.996094 318.238281 C 283.554688 319.800781 283.554688 322.332031 281.996094 323.890625 C 281.214844 324.675781 280.191406 325.0625 279.175781 325.0625 Z M 279.171875 325.058594 " fill-opacity="1" fill-rule="evenodd"/><path fill="#2c2d59" d="M 105.414062 325.054688 C 104.394531 325.054688 103.371094 324.664062 102.597656 323.886719 C 101.035156 322.324219 101.035156 319.792969 102.597656 318.234375 L 126.484375 294.304688 C 128.042969 292.742188 130.570312 292.742188 132.125 294.304688 C 133.683594 295.867188 133.683594 298.398438 132.125 299.957031 L 108.238281 323.886719 C 107.457031 324.667969 106.4375 325.054688 105.417969 325.054688 Z M 105.414062 325.054688 " fill-opacity="1" fill-rule="evenodd"/><path fill="#2c2d59" d="M 192.292969 248.410156 C 179.542969 248.410156 169.167969 238.019531 169.167969 225.246094 C 169.167969 212.472656 179.546875 202.078125 192.292969 202.078125 C 205.042969 202.078125 215.417969 212.472656 215.417969 225.246094 C 215.417969 238.019531 205.046875 248.410156 192.292969 248.410156 Z M 192.292969 210.074219 C 183.941406 210.074219 177.148438 216.882812 177.148438 225.246094 C 177.148438 233.613281 183.945312 240.414062 192.292969 240.414062 C 200.644531 240.414062 207.4375 233.609375 207.4375 225.246094 C 207.4375 216.882812 200.648438 210.074219 192.292969 210.074219 Z M 192.292969 210.074219 " fill-opacity="1" fill-rule="evenodd"/><path fill="#2c2d59" d="M 181.097656 325.351562 C 178.894531 325.351562 177.109375 323.558594 177.109375 321.355469 L 177.109375 284.933594 C 177.109375 264.539062 160.546875 247.953125 140.191406 247.953125 L 101.144531 247.953125 C 98.945312 247.953125 97.15625 246.160156 97.15625 243.957031 C 97.15625 241.753906 98.945312 239.960938 101.144531 239.960938 L 140.191406 239.960938 C 164.949219 239.960938 185.085938 260.140625 185.085938 284.933594 L 185.085938 321.359375 C 185.085938 323.558594 183.304688 325.351562 181.097656 325.351562 Z M 181.097656 325.351562 " fill-opacity="1" fill-rule="evenodd"/><path fill="#2c2d59" d="M 203.488281 325.351562 C 201.289062 325.351562 199.5 323.558594 199.5 321.355469 L 199.5 284.933594 C 199.5 260.132812 219.636719 239.957031 244.394531 239.957031 L 283.445312 239.957031 C 285.648438 239.957031 287.433594 241.75 287.433594 243.953125 C 287.433594 246.160156 285.644531 247.949219 283.445312 247.949219 L 244.394531 247.949219 C 224.035156 247.949219 207.480469 264.542969 207.480469 284.929688 L 207.480469 321.355469 C 207.480469 323.558594 205.691406 325.351562 203.488281 325.351562 Z M 203.488281 325.351562 " fill-opacity="1" fill-rule="evenodd"/><path fill="#2c2d59" d="M 192.292969 192.261719 C 164.765625 192.261719 137.738281 188.980469 114.140625 182.777344 C 112.007812 182.21875 110.738281 180.03125 111.292969 177.902344 C 111.851562 175.765625 114.042969 174.492188 116.164062 175.046875 C 139.113281 181.078125 165.441406 184.269531 192.292969 184.269531 C 219.148438 184.269531 245.472656 181.078125 268.421875 175.046875 C 270.550781 174.496094 272.734375 175.765625 273.292969 177.902344 C 273.851562 180.035156 272.574219 182.21875 270.445312 182.777344 C 246.851562 188.980469 219.824219 192.261719 192.296875 192.261719 Z M 192.292969 192.261719 " fill-opacity="1" fill-rule="evenodd"/><path fill="#d62729" d="M 277.277344 152.035156 C 276.960938 152.035156 276.644531 152 276.328125 151.921875 C 274.972656 151.585938 273.617188 151.261719 272.261719 150.941406 C 244.738281 144.476562 217.675781 141.195312 191.816406 141.195312 C 164.734375 141.195312 138.113281 144.789062 112.6875 151.886719 C 111.496094 152.226562 110.199219 151.976562 109.203125 151.222656 C 108.214844 150.464844 107.628906 149.285156 107.628906 148.039062 L 107.628906 83.644531 C 107.628906 82.0625 108.554688 80.632812 109.996094 79.988281 C 135.460938 68.664062 162.574219 62.925781 190.578125 62.925781 C 218.488281 62.925781 248.121094 68.632812 278.652344 79.894531 C 280.21875 80.472656 281.265625 81.96875 281.265625 83.648438 L 281.265625 148.046875 C 281.265625 149.269531 280.699219 150.433594 279.734375 151.191406 C 279.03125 151.746094 278.164062 152.039062 277.277344 152.039062 Z M 191.820312 133.203125 C 218.042969 133.203125 245.445312 136.492188 273.289062 142.972656 L 273.289062 86.441406 C 244.570312 76.136719 216.761719 70.914062 190.585938 70.914062 C 164.570312 70.914062 139.359375 76.074219 115.613281 86.257812 L 115.613281 142.828125 C 140.191406 136.441406 165.804688 133.207031 191.820312 133.207031 Z M 191.820312 133.203125 " fill-opacity="1" fill-rule="evenodd"/><g fill="#d62729" fill-opacity="1"><g transform="translate(100.084886, 285.127323)"><g><path d="M -6.875 -2.421875 L -6.34375 -1.515625 L -7.09375 -0.90625 C -7.09375 -0.75 -7.054688 -0.554688 -6.984375 -0.328125 C -6.921875 -0.0976562 -6.828125 0.125 -6.703125 0.34375 C -6.515625 0.664062 -6.300781 0.878906 -6.0625 0.984375 C -5.820312 1.085938 -5.585938 1.078125 -5.359375 0.953125 C -5.148438 0.828125 -5.03125 0.632812 -5 0.375 C -4.976562 0.125 -5.03125 -0.273438 -5.15625 -0.828125 C -5.363281 -1.597656 -5.410156 -2.242188 -5.296875 -2.765625 C -5.191406 -3.285156 -4.894531 -3.6875 -4.40625 -3.96875 C -3.894531 -4.269531 -3.375 -4.300781 -2.84375 -4.0625 C -2.3125 -3.832031 -1.851562 -3.378906 -1.46875 -2.703125 C -1.1875 -2.234375 -1.007812 -1.757812 -0.9375 -1.28125 C -0.863281 -0.8125 -0.890625 -0.375 -1.015625 0.03125 L -2.28125 0.75 L -2.8125 -0.1875 L -2.03125 -0.78125 C -2 -0.96875 -2.007812 -1.179688 -2.0625 -1.421875 C -2.125 -1.671875 -2.226562 -1.921875 -2.375 -2.171875 C -2.5625 -2.515625 -2.769531 -2.726562 -3 -2.8125 C -3.238281 -2.90625 -3.46875 -2.890625 -3.6875 -2.765625 C -3.925781 -2.628906 -4.066406 -2.4375 -4.109375 -2.1875 C -4.160156 -1.945312 -4.128906 -1.582031 -4.015625 -1.09375 C -3.816406 -0.269531 -3.75 0.40625 -3.8125 0.9375 C -3.882812 1.46875 -4.164062 1.875 -4.65625 2.15625 C -5.144531 2.4375 -5.660156 2.457031 -6.203125 2.21875 C -6.753906 1.988281 -7.21875 1.566406 -7.59375 0.953125 C -7.851562 0.492188 -8.019531 0.0351562 -8.09375 -0.421875 C -8.175781 -0.890625 -8.179688 -1.320312 -8.109375 -1.71875 Z M -6.875 -2.421875 "/></g></g></g><g fill="#d62729" fill-opacity="1"><g transform="translate(96.755094, 279.351456)"><g><path d="M -7.734375 0 C -8.078125 -0.707031 -8.1875 -1.34375 -8.0625 -1.90625 C -7.9375 -2.46875 -7.585938 -2.890625 -7.015625 -3.171875 C -6.703125 -3.328125 -6.382812 -3.375 -6.0625 -3.3125 C -5.75 -3.257812 -5.441406 -3.101562 -5.140625 -2.84375 C -5.203125 -3.28125 -5.144531 -3.632812 -4.96875 -3.90625 C -4.800781 -4.1875 -4.53125 -4.421875 -4.15625 -4.609375 L -3.84375 -4.75 C -3.707031 -4.820312 -3.613281 -4.90625 -3.5625 -5 C -3.519531 -5.09375 -3.515625 -5.207031 -3.546875 -5.34375 L -3.625 -5.5 L -2.859375 -5.875 L -2.546875 -5.21875 C -2.347656 -4.8125 -2.316406 -4.46875 -2.453125 -4.1875 C -2.585938 -3.914062 -2.832031 -3.695312 -3.1875 -3.53125 L -3.546875 -3.359375 C -3.847656 -3.210938 -4.046875 -3.015625 -4.140625 -2.765625 C -4.234375 -2.523438 -4.210938 -2.253906 -4.078125 -1.953125 L -3.578125 -0.921875 L -1.9375 -1.71875 L -2.125 -2.46875 L -1.375 -2.828125 L -0.109375 -0.234375 L -0.859375 0.125 L -1.328125 -0.46875 L -5.796875 1.703125 L -5.59375 2.4375 L -6.359375 2.8125 L -6.6875 2.140625 Z M -4.546875 -0.453125 L -4.96875 -1.3125 C -5.144531 -1.664062 -5.347656 -1.894531 -5.578125 -2 C -5.816406 -2.101562 -6.078125 -2.085938 -6.359375 -1.953125 C -6.640625 -1.816406 -6.816406 -1.617188 -6.890625 -1.359375 C -6.972656 -1.097656 -6.929688 -0.800781 -6.765625 -0.46875 L -6.328125 0.421875 Z M -4.546875 -0.453125 "/></g></g></g><g fill="#d62729" fill-opacity="1"><g transform="translate(93.533016, 272.5794)"><g><path d="M -5.75 2.09375 L -6.53125 2.421875 L -7.625 -0.234375 L -6.84375 -0.5625 L -6.4375 0.09375 L -1.828125 -1.828125 L -1.96875 -2.59375 L -1.203125 -2.90625 L -0.109375 -0.25 L -0.875 0.0625 L -1.296875 -0.546875 L -5.90625 1.375 Z M -5.75 2.09375 "/></g></g></g><g fill="#d62729" fill-opacity="1"><g transform="translate(91.922209, 268.643295)"><g/></g></g><g fill="#d62729" fill-opacity="1"><g transform="translate(90.773464, 265.661848)"><g><path d="M -8.546875 -4.015625 L -6.765625 -4.578125 L -6.453125 -3.5625 L -7.1875 -3.28125 L -6.796875 -2.046875 L -2.125 -3.5 L -2.21875 -4.265625 L -1.421875 -4.515625 L -0.546875 -1.765625 L -1.34375 -1.515625 L -1.71875 -2.171875 L -6.390625 -0.71875 L -6 0.5 L -5.234375 0.328125 L -4.921875 1.34375 L -6.703125 1.90625 Z M -8.546875 -4.015625 "/></g></g></g><g fill="#d62729" fill-opacity="1"><g transform="translate(88.60223, 258.706322)"><g><path d="M -6.015625 1.09375 L -6.84375 1.28125 L -7.484375 -1.515625 L -6.65625 -1.703125 L -6.34375 -1.015625 L -4.40625 -1.453125 L -5.046875 -4.21875 L -6.984375 -3.78125 L -6.953125 -3.03125 L -7.78125 -2.84375 L -7.953125 -3.5625 L -8.25 -4.90625 L -8.421875 -5.640625 L -7.59375 -5.828125 L -7.28125 -5.125 L -2.421875 -6.234375 L -2.453125 -7 L -1.640625 -7.1875 L -1 -4.390625 L -1.8125 -4.203125 L -2.125 -4.890625 L -3.984375 -4.46875 L -3.34375 -1.703125 L -1.484375 -2.125 L -1.515625 -2.875 L -0.703125 -3.0625 L -0.0625 -0.265625 L -0.875 -0.078125 L -1.171875 -0.75 L -6.03125 0.359375 Z M -6.015625 1.09375 "/></g></g></g><g fill="#d62729" fill-opacity="1"><g transform="translate(86.782266, 250.55939)"><g><path d="M -0.84375 -0.078125 L -0.984375 -0.5625 L -7.28125 -1.78125 L -7.484375 -3.1875 L -1.796875 -6.15625 L -1.796875 -6.625 L -0.984375 -6.75 L -0.640625 -4.421875 L -1.453125 -4.296875 L -1.609375 -4.78125 L -2.53125 -4.328125 L -2.203125 -2.09375 L -1.203125 -1.9375 L -1.171875 -2.40625 L -0.359375 -2.53125 L -0.03125 -0.203125 Z M -3.265625 -2.265625 L -3.5 -3.84375 L -5.796875 -2.734375 L -5.796875 -2.703125 Z M -3.265625 -2.265625 "/></g></g></g><g fill="#d62729" fill-opacity="1"><g transform="translate(85.69316, 242.907186)"><g><path d="M -7.40625 -6.921875 L -6.5625 -6.96875 L -6.375 -6.234375 L -0.421875 -6.609375 L -0.328125 -5.21875 L -4.828125 -2.140625 L -4.8125 -2.109375 L -1.140625 -2.34375 L -1.03125 -3.09375 L -0.203125 -3.140625 L -0.015625 -0.265625 L -0.84375 -0.21875 L -1.046875 -0.9375 L -6.015625 -0.625 L -6.109375 0.125 L -6.953125 0.171875 L -7 -0.5625 L -7.09375 -1.96875 L -2.59375 -5.046875 L -2.609375 -5.078125 L -6.28125 -4.84375 L -6.375 -4.09375 L -7.21875 -4.046875 L -7.359375 -6.171875 Z M -7.40625 -6.921875 "/></g></g></g><g fill="#d62729" fill-opacity="1"><g transform="translate(85.221382, 234.653407)"><g><path d="M -0.6875 -6.046875 C -0.46875 -5.804688 -0.269531 -5.46875 -0.09375 -5.03125 C 0.0703125 -4.601562 0.148438 -4.0625 0.140625 -3.40625 C 0.128906 -2.457031 -0.191406 -1.691406 -0.828125 -1.109375 C -1.460938 -0.535156 -2.285156 -0.253906 -3.296875 -0.265625 L -3.53125 -0.265625 C -4.570312 -0.285156 -5.410156 -0.59375 -6.046875 -1.1875 C -6.691406 -1.78125 -7.007812 -2.546875 -7 -3.484375 C -6.988281 -4.023438 -6.894531 -4.519531 -6.71875 -4.96875 C -6.539062 -5.414062 -6.300781 -5.785156 -6 -6.078125 L -4.59375 -6.046875 L -4.609375 -5.015625 L -5.546875 -4.84375 C -5.660156 -4.71875 -5.75 -4.550781 -5.8125 -4.34375 C -5.882812 -4.132812 -5.925781 -3.894531 -5.9375 -3.625 C -5.945312 -3.019531 -5.722656 -2.539062 -5.265625 -2.1875 C -4.816406 -1.84375 -4.234375 -1.664062 -3.515625 -1.65625 L -3.265625 -1.65625 C -2.554688 -1.644531 -1.988281 -1.800781 -1.5625 -2.125 C -1.144531 -2.457031 -0.929688 -2.9375 -0.921875 -3.5625 C -0.910156 -3.84375 -0.925781 -4.066406 -0.96875 -4.234375 C -1.019531 -4.410156 -1.078125 -4.546875 -1.140625 -4.640625 L -2.328125 -4.65625 L -2.421875 -3.671875 L -3.390625 -3.6875 L -3.34375 -6.078125 Z M -0.6875 -6.046875 "/></g></g></g><g fill="#d62729" fill-opacity="1"><g transform="translate(85.344379, 227.471017)"><g><path d="M -0.8125 -0.28125 L -0.84375 -0.765625 L -6.671875 -3.421875 L -6.546875 -4.84375 L -0.328125 -6.390625 L -0.21875 -6.875 L 0.609375 -6.796875 L 0.40625 -4.453125 L -0.421875 -4.53125 L -0.46875 -5.015625 L -1.453125 -4.796875 L -1.65625 -2.546875 L -0.734375 -2.140625 L -0.59375 -2.625 L 0.234375 -2.546875 L 0.015625 -0.203125 Z M -2.640625 -2.96875 L -2.5 -4.5625 L -5.03125 -4 L -5.03125 -3.96875 Z M -2.640625 -2.96875 "/></g></g></g><g fill="#d62729" fill-opacity="1"><g transform="translate(86.01919, 219.796095)"><g><path d="M -3.828125 -7.78125 L -3.84375 -7.765625 L 0.90625 -5.015625 L 0.734375 -4.09375 L -4.640625 -3.171875 L -4.640625 -3.140625 L -1.625 -2.75 L -0.546875 -2.546875 L -0.25 -3.234375 L 0.5625 -3.09375 L 0.046875 -0.265625 L -0.765625 -0.40625 L -0.796875 -1.15625 L -5.703125 -2.046875 L -5.96875 -1.359375 L -6.796875 -1.5 L -6.671875 -2.21875 L -6.34375 -4.015625 L -0.984375 -4.84375 L -0.96875 -4.875 L -5.703125 -7.546875 L -5.25 -10.078125 L -4.421875 -9.9375 L -4.40625 -9.171875 L 0.5 -8.28125 L 0.78125 -8.984375 L 1.59375 -8.84375 L 1.09375 -6.015625 L 0.28125 -6.15625 L 0.25 -6.90625 L -0.828125 -7.109375 Z M -3.828125 -7.78125 "/></g></g></g><g fill="#d62729" fill-opacity="1"><g transform="translate(87.854504, 210.080493)"><g><path d="M -0.75 -0.421875 L -0.6875 -0.890625 L -5.953125 -4.5625 L -5.578125 -5.921875 L 0.796875 -6.359375 L 1 -6.796875 L 1.796875 -6.578125 L 1.1875 -4.3125 L 0.390625 -4.53125 L 0.421875 -5.03125 L -0.59375 -4.96875 L -1.1875 -2.8125 L -0.34375 -2.25 L -0.125 -2.6875 L 0.671875 -2.46875 L 0.046875 -0.203125 Z M -2.078125 -3.390625 L -1.65625 -4.921875 L -4.234375 -4.828125 L -4.25 -4.796875 Z M -2.078125 -3.390625 "/></g></g></g><g fill="#d62729" fill-opacity="1"><g transform="translate(89.932393, 202.622465)"><g><path d="M -5.40625 -5.53125 C -5.132812 -6.28125 -4.753906 -6.804688 -4.265625 -7.109375 C -3.773438 -7.410156 -3.234375 -7.453125 -2.640625 -7.234375 C -2.304688 -7.117188 -2.046875 -6.925781 -1.859375 -6.65625 C -1.671875 -6.394531 -1.566406 -6.066406 -1.546875 -5.671875 C -1.296875 -6.023438 -1.003906 -6.238281 -0.671875 -6.3125 C -0.347656 -6.382812 0.00390625 -6.347656 0.390625 -6.203125 L 0.71875 -6.09375 C 0.863281 -6.039062 0.984375 -6.023438 1.078125 -6.046875 C 1.179688 -6.078125 1.265625 -6.15625 1.328125 -6.28125 L 1.40625 -6.4375 L 2.203125 -6.15625 L 1.953125 -5.46875 C 1.804688 -5.039062 1.585938 -4.78125 1.296875 -4.6875 C 1.003906 -4.601562 0.675781 -4.625 0.3125 -4.75 L -0.078125 -4.890625 C -0.390625 -5.003906 -0.664062 -5.003906 -0.90625 -4.890625 C -1.15625 -4.785156 -1.332031 -4.585938 -1.4375 -4.296875 L -1.828125 -3.21875 L -0.109375 -2.59375 L 0.28125 -3.234375 L 1.0625 -2.953125 L 0.09375 -0.25 L -0.6875 -0.53125 L -0.578125 -1.265625 L -5.28125 -2.953125 L -5.65625 -2.3125 L -6.453125 -2.59375 L -6.203125 -3.28125 Z M -2.84375 -3.578125 L -2.515625 -4.46875 C -2.390625 -4.84375 -2.375 -5.148438 -2.46875 -5.390625 C -2.5625 -5.628906 -2.753906 -5.800781 -3.046875 -5.90625 C -3.335938 -6.007812 -3.601562 -6 -3.84375 -5.875 C -4.082031 -5.757812 -4.265625 -5.523438 -4.390625 -5.171875 L -4.71875 -4.25 Z M -2.84375 -3.578125 "/></g></g></g><g fill="#d62729" fill-opacity="1"><g transform="translate(92.52921, 195.587153)"><g><path d="M -5.515625 -2.640625 L -6.28125 -2.96875 L -5.15625 -5.609375 L -4.390625 -5.28125 L -4.546875 -4.546875 L 0.03125 -2.59375 L 0.46875 -3.21875 L 1.234375 -2.890625 L 0.109375 -0.25 L -0.65625 -0.578125 L -0.515625 -1.3125 L -5.09375 -3.265625 Z M -5.515625 -2.640625 "/></g></g></g><g fill="#d62729" fill-opacity="1"><g transform="translate(94.138593, 191.730943)"><g><path d="M -0.640625 -0.5625 L -0.5 -1.015625 L -4.96875 -5.625 L -4.328125 -6.890625 L 2.015625 -6.078125 L 2.3125 -6.484375 L 3.046875 -6.109375 L 2 -4 L 1.265625 -4.375 L 1.390625 -4.84375 L 0.40625 -5 L -0.609375 -2.984375 L 0.09375 -2.265625 L 0.40625 -2.671875 L 1.140625 -2.296875 L 0.09375 -0.1875 Z M -1.375 -3.734375 L -0.671875 -5.15625 L -3.21875 -5.546875 L -3.234375 -5.515625 Z M -1.375 -3.734375 "/></g></g></g><g fill="#d62729" fill-opacity="1"><g transform="translate(97.564776, 184.830194)"><g><path d="M -0.71875 -8.65625 L -0.75 -8.625 L 2.671875 -4.34375 L 2.171875 -3.53125 L -3.15625 -4.640625 L -3.171875 -4.609375 L -0.5 -3.140625 L 0.421875 -2.5625 L 0.9375 -3.109375 L 1.640625 -2.671875 L 0.140625 -0.21875 L -0.5625 -0.65625 L -0.3125 -1.359375 L -4.546875 -3.96875 L -5.0625 -3.421875 L -5.78125 -3.859375 L -5.390625 -4.484375 L -4.4375 -6.046875 L 0.84375 -4.859375 L 0.859375 -4.890625 L -2.546875 -9.109375 L -1.203125 -11.296875 L -0.484375 -10.859375 L -0.765625 -10.140625 L 3.46875 -7.53125 L 4.015625 -8.09375 L 4.71875 -7.65625 L 3.203125 -5.203125 L 2.5 -5.640625 L 2.75 -6.34375 L 1.828125 -6.921875 Z M -0.71875 -8.65625 "/></g></g></g><g fill="#d62729" fill-opacity="1"><g transform="translate(102.75932, 176.455566)"><g><path d="M 0.140625 -8.65625 L 0.125 -8.65625 L 3.09375 -4.046875 L 2.515625 -3.3125 L -2.6875 -4.9375 L -2.703125 -4.90625 L -0.203125 -3.171875 L 0.671875 -2.5 L 1.25 -3 L 1.90625 -2.5 L 0.15625 -0.21875 L -0.5 -0.71875 L -0.171875 -1.390625 L -4.140625 -4.421875 L -4.703125 -3.921875 L -5.375 -4.4375 L -4.921875 -5.015625 L -3.8125 -6.46875 L 1.328125 -4.765625 L 1.34375 -4.78125 L -1.640625 -9.328125 L -0.078125 -11.359375 L 0.59375 -10.84375 L 0.234375 -10.171875 L 4.203125 -7.140625 L 4.796875 -7.640625 L 5.453125 -7.140625 L 3.703125 -4.859375 L 3.046875 -5.359375 L 3.375 -6.03125 L 2.5 -6.703125 Z M 0.140625 -8.65625 "/></g></g></g><g fill="#d62729" fill-opacity="1"><g transform="translate(108.816048, 168.640188)"><g><path d="M -0.46875 -0.71875 L -0.203125 -1.109375 L -3.25 -6.765625 L -2.28125 -7.8125 L 3.609375 -5.296875 L 4 -5.609375 L 4.609375 -5.046875 L 3.015625 -3.296875 L 2.40625 -3.859375 L 2.65625 -4.28125 L 1.734375 -4.6875 L 0.21875 -3.03125 L 0.71875 -2.15625 L 1.125 -2.453125 L 1.734375 -1.890625 L 0.140625 -0.15625 Z M -0.3125 -3.953125 L 0.765625 -5.140625 L -1.578125 -6.21875 L -1.59375 -6.1875 Z M -0.3125 -3.953125 "/></g></g></g><g fill="#d62729" fill-opacity="1"><g transform="translate(114.041188, 162.944429)"><g><path d="M 0.65625 -10.125 L 1.21875 -9.5 L 0.78125 -8.875 L 4.84375 -4.515625 L 3.828125 -3.5625 L -1.421875 -5.078125 L -1.421875 -5.0625 L 1.09375 -2.359375 L 1.734375 -2.75 L 2.296875 -2.140625 L 0.1875 -0.1875 L -0.375 -0.796875 L 0.0625 -1.40625 L -3.328125 -5.046875 L -3.984375 -4.65625 L -4.546875 -5.28125 L -4 -5.78125 L -2.96875 -6.734375 L 2.265625 -5.203125 L 2.265625 -5.234375 L -0.234375 -7.921875 L -0.875 -7.53125 L -1.4375 -8.15625 L 0.109375 -9.609375 Z M 0.65625 -10.125 "/></g></g></g><g fill="#d62729" fill-opacity="1"><g transform="translate(120.201867, 157.334541)"><g/></g></g><g fill="#d62729" fill-opacity="1"><g transform="translate(184.088329, 235.458532)"><g><path d="M 1.5625 -21.515625 C 1.5625 -21.734375 1.609375 -21.898438 1.703125 -22.015625 C 1.804688 -22.140625 1.945312 -22.203125 2.125 -22.203125 L 7.8125 -22.203125 C 8.164062 -22.203125 8.34375 -21.992188 8.34375 -21.578125 L 8.34375 -5.328125 C 8.34375 -5.171875 8.367188 -5.0625 8.421875 -5 C 8.472656 -4.9375 8.566406 -4.90625 8.703125 -4.90625 L 17.71875 -4.90625 C 18.175781 -4.90625 18.40625 -4.71875 18.40625 -4.34375 L 18.40625 -0.65625 C 18.40625 -0.457031 18.335938 -0.296875 18.203125 -0.171875 C 18.078125 -0.0546875 17.894531 0 17.65625 0 L 2.359375 0 C 2.066406 0 1.859375 -0.0546875 1.734375 -0.171875 C 1.617188 -0.296875 1.5625 -0.488281 1.5625 -0.75 Z M 1.5625 -21.515625 "/></g></g></g><g clip-path="url(#44c563b441)"><path fill="#2c2d59" d="M 132.019531 207.277344 C 134.464844 208.847656 140.078125 212.429688 140.164062 212.230469 C 140.246094 212.035156 137.382812 209.019531 135.929688 207.515625 C 134.765625 207.425781 133.4375 207.34375 132.019531 207.277344 Z M 149.492188 216.304688 C 149.929688 216.324219 150.375 216.34375 150.820312 216.367188 C 149.785156 215.285156 143.410156 208.679688 140.308594 208.007812 C 140.023438 207.945312 139.605469 207.882812 139.074219 207.8125 C 141.652344 209.890625 148.050781 215.0625 149.492188 216.304688 Z M 159.8125 223.855469 C 159.984375 224.171875 160.105469 224.628906 160.09375 225.289062 C 160.078125 225.980469 159.90625 226.753906 159.707031 227.4375 C 160.640625 226.328125 161.238281 224.914062 161.492188 224.203125 C 161.492188 224.171875 161.488281 224.136719 161.484375 224.105469 C 161.226562 223.992188 160.726562 223.863281 159.8125 223.855469 Z M 158.773438 223.972656 C 158.695312 223.96875 158.625 223.941406 158.570312 223.90625 C 157.839844 223.964844 156.941406 224.082031 155.847656 224.285156 C 153.738281 224.671875 151.773438 225.535156 150.167969 226.480469 C 147.871094 227.828125 146.332031 229.183594 146.304688 229.507812 C 146.394531 229.5625 148.695312 229.488281 151.152344 229.390625 C 153.871094 229.28125 156.730469 229.042969 157.40625 228.9375 C 157.417969 228.933594 157.441406 228.929688 157.46875 228.921875 C 157.816406 228.851562 158.140625 228.71875 158.441406 228.542969 C 158.730469 227.816406 159.238281 226.410156 159.261719 225.273438 C 159.292969 223.992188 158.773438 223.972656 158.773438 223.972656 Z M 102.117188 225.007812 C 102.117188 225.007812 105.015625 225.753906 107.671875 226.71875 C 110.410156 227.710938 112.910156 228.921875 113.136719 229.300781 C 113.578125 230.050781 112.4375 230.53125 112.054688 230.546875 C 111.664062 230.566406 103.347656 230.734375 103.347656 230.476562 C 103.347656 230.21875 104.0625 229.90625 104.6875 229.941406 C 105.3125 229.980469 112.367188 229.871094 112.253906 229.503906 C 112.144531 229.136719 106.746094 226.75 104.945312 226.164062 C 103.144531 225.578125 102.117188 225.007812 102.117188 225.007812 Z M 155.765625 232.261719 C 156.332031 232.261719 156.84375 232.488281 157.214844 232.859375 C 157.585938 233.230469 157.816406 233.746094 157.816406 234.3125 C 157.816406 234.875 157.585938 235.386719 157.214844 235.757812 C 156.84375 236.128906 156.332031 236.359375 155.765625 236.359375 C 155.199219 236.359375 154.683594 236.128906 154.316406 235.757812 C 153.945312 235.386719 153.714844 234.875 153.714844 234.3125 C 153.714844 233.746094 153.945312 233.230469 154.316406 232.859375 C 154.683594 232.488281 155.199219 232.261719 155.765625 232.261719 Z M 149.539062 228.945312 C 149.3125 228.953125 149.117188 228.773438 149.105469 228.542969 C 149.097656 228.316406 149.273438 228.125 149.503906 228.113281 C 149.523438 228.113281 156.453125 227.804688 157.050781 227.382812 C 157.574219 227.007812 157.609375 225.113281 157.613281 225.105469 C 157.617188 224.878906 157.804688 224.695312 158.035156 224.699219 C 158.261719 224.703125 158.445312 224.890625 158.441406 225.125 C 158.441406 225.128906 158.402344 227.441406 157.53125 228.058594 C 156.734375 228.625 149.5625 228.941406 149.539062 228.945312 Z M 155.9375 233.695312 C 155.75 233.507812 155.492188 233.390625 155.207031 233.390625 C 154.917969 233.390625 154.660156 233.507812 154.46875 233.695312 C 154.28125 233.882812 154.164062 234.144531 154.164062 234.433594 C 154.164062 234.71875 154.28125 234.976562 154.46875 235.164062 C 154.660156 235.351562 154.917969 235.46875 155.207031 235.46875 C 155.492188 235.46875 155.75 235.351562 155.9375 235.164062 C 156.128906 234.976562 156.246094 234.71875 156.246094 234.433594 C 156.246094 234.144531 156.128906 233.882812 155.9375 233.695312 Z M 111.023438 234.695312 C 111.023438 234.695312 114.035156 231.246094 115.542969 230.953125 C 117.050781 230.65625 141.84375 229.996094 145.371094 231.429688 C 148.894531 232.859375 154.039062 238.550781 153.785156 239.722656 C 153.738281 239.933594 153.683594 240.109375 153.628906 240.253906 L 162.265625 240.199219 C 162.4375 240.199219 162.671875 239.617188 162.816406 239.035156 L 162.824219 239.015625 C 162.871094 238.824219 162.90625 238.632812 162.921875 238.460938 C 162.929688 238.351562 162.933594 238.253906 162.925781 238.171875 L 159.625 238.148438 C 159.316406 238.148438 154.847656 237.898438 154.847656 237.59375 C 154.847656 237.289062 159.316406 237.042969 159.625 237.042969 L 161.4375 237.054688 C 161.558594 235.527344 161.902344 230.714844 161.679688 226.453125 C 160.867188 227.925781 159.558594 229.617188 157.699219 230.007812 C 157.683594 230.011719 157.640625 230.019531 157.574219 230.027344 C 156.871094 230.140625 153.949219 230.382812 151.195312 230.496094 C 148.214844 230.613281 145.375 230.5 145.214844 229.734375 C 145.207031 229.699219 145.203125 229.664062 145.203125 229.628906 C 145.195312 229.484375 145.25 229.34375 145.347656 229.242188 C 145.808594 228.394531 147.386719 226.832031 149.605469 225.527344 C 151.304688 224.527344 153.398438 223.613281 155.648438 223.199219 C 158.574219 222.65625 160.316406 222.75 161.324219 222.980469 C 161.027344 221.25 160.554688 219.902344 159.816406 219.347656 C 157.214844 217.394531 149.613281 216.710938 145.824219 217.453125 C 145.539062 217.542969 145.828125 217.417969 145.007812 217.742188 C 144.183594 218.0625 138.859375 227.457031 138.308594 227.457031 C 137.757812 227.457031 140.511719 221.84375 140.808594 220.886719 C 140.984375 220.320312 141.261719 219.496094 141.191406 218.820312 C 141.007812 218.761719 140.933594 218.6875 140.933594 218.6875 C 140.933594 218.6875 140.898438 218.539062 138.914062 218.207031 C 136.929688 217.878906 119.042969 217.917969 117.792969 218.429688 C 116.542969 218.945312 116.765625 219.933594 117.058594 220.886719 C 117.355469 221.84375 120.109375 227.457031 119.554688 227.457031 C 119.007812 227.457031 114.78125 219.382812 113.386719 218.832031 C 111.988281 218.285156 104.183594 217.253906 104.183594 217.253906 C 104.183594 217.253906 113.789062 217.511719 114.652344 217.421875 C 115.515625 217.328125 116.085938 216.246094 116.710938 216.210938 C 117.058594 216.191406 125.1875 216.207031 132.289062 216.230469 C 130.597656 214.234375 125.394531 208.078125 124.992188 207.457031 C 124.910156 207.324219 124.863281 207.203125 124.84375 207.09375 C 118.894531 207.082031 113.097656 207.449219 111.109375 208.632812 C 106.867188 211.148438 103.394531 214.722656 103.394531 214.722656 C 103.394531 214.722656 107.179688 208.742188 111.878906 207.089844 C 116.582031 205.4375 137.886719 205.328125 143.066406 206.90625 C 148.246094 208.484375 153.058594 215.53125 153.058594 215.53125 L 153.164062 215.648438 C 153.574219 214.988281 154.316406 213.980469 155.214844 213.539062 C 156.613281 212.859375 163.242188 212.714844 163.570312 213.5 C 163.902344 214.292969 161.902344 216.75 160.101562 216.804688 C 158.300781 216.859375 155.230469 216.367188 154.351562 216.679688 C 154.472656 216.695312 154.597656 216.710938 154.714844 216.730469 C 159.496094 217.410156 161.617188 218.613281 162.09375 220.375 C 162.273438 221.03125 162.832031 223.007812 163.007812 225.972656 C 163.246094 230.089844 163.195312 235.371094 163.167969 237.070312 C 163.644531 237.078125 163.910156 237.382812 164.003906 237.867188 C 164.042969 238.070312 164.050781 238.304688 164.027344 238.554688 C 164.007812 238.785156 163.960938 239.035156 163.898438 239.289062 L 163.894531 239.3125 C 163.636719 240.304688 163.027344 241.296875 162.269531 241.304688 L 162.230469 241.304688 C 162.171875 242.0625 162.039062 243.359375 161.808594 243.539062 C 161.75 243.585938 161.425781 243.621094 160.925781 243.644531 L 160.921875 243.644531 C 159.527344 243.71875 156.777344 243.730469 154.6875 243.722656 C 139.742188 243.894531 103.03125 244.285156 101.855469 243.90625 C 100.722656 243.539062 134.90625 243.042969 150.859375 242.832031 C 150.855469 242.800781 150.855469 242.765625 150.863281 242.734375 C 150.910156 242.398438 150.835938 241.570312 150.773438 241.019531 C 144.222656 241.050781 124.296875 241.140625 102.988281 241.207031 L 102.988281 241.210938 C 101.703125 241.304688 100.332031 241.351562 100.316406 241.117188 C 100.300781 240.871094 101.765625 240.605469 103.070312 240.28125 C 127.664062 240.023438 149.894531 239.730469 150.109375 239.390625 C 150.21875 239.210938 150 238.785156 149.578125 238.238281 C 142.332031 238.125 116.078125 237.550781 114.898438 237.046875 C 114.898438 237.046875 139.960938 236.566406 148.015625 236.511719 C 147.480469 235.980469 146.894531 235.4375 146.316406 234.941406 C 138.449219 234.90625 115.636719 234.300781 114.9375 234 C 114.25 233.699219 137.007812 233.910156 145.015625 233.878906 C 144.328125 233.359375 143.730469 232.980469 143.351562 232.859375 C 141.734375 232.347656 115.910156 231.578125 114.957031 231.941406 C 114 232.308594 111.539062 234.988281 111.28125 234.839844 C 111.023438 234.695312 111.023438 234.695312 111.023438 234.695312 " fill-opacity="1" fill-rule="evenodd"/></g><g fill="#2c2d59" fill-opacity="1"><g transform="translate(147.034092, 337.657553)"><g><path d="M 5.859375 2.296875 C 5.003906 1.984375 4.273438 1.59375 3.671875 1.125 C 3.078125 0.65625 2.625 0.15625 2.3125 -0.375 C 2 -0.914062 1.8125 -1.453125 1.75 -1.984375 L 2.984375 -2.71875 L 3.21875 -2.640625 C 3.550781 -0.921875 4.597656 0.25 6.359375 0.875 C 7.378906 1.226562 8.210938 1.28125 8.859375 1.03125 C 9.503906 0.78125 9.960938 0.269531 10.234375 -0.5 C 10.390625 -0.9375 10.441406 -1.335938 10.390625 -1.703125 C 10.335938 -2.066406 10.160156 -2.425781 9.859375 -2.78125 C 9.566406 -3.144531 9.125 -3.519531 8.53125 -3.90625 L 7.09375 -4.84375 C 6 -5.550781 5.285156 -6.3125 4.953125 -7.125 C 4.617188 -7.945312 4.617188 -8.835938 4.953125 -9.796875 C 5.191406 -10.460938 5.578125 -11 6.109375 -11.40625 C 6.648438 -11.8125 7.304688 -12.039062 8.078125 -12.09375 C 8.847656 -12.15625 9.695312 -12.019531 10.625 -11.6875 C 11.644531 -11.332031 12.453125 -10.890625 13.046875 -10.359375 C 13.648438 -9.828125 14.0625 -9.191406 14.28125 -8.453125 L 13.125 -7.6875 L 12.890625 -7.78125 C 12.671875 -8.394531 12.332031 -8.90625 11.875 -9.3125 C 11.425781 -9.726562 10.847656 -10.0625 10.140625 -10.3125 C 9.203125 -10.644531 8.425781 -10.710938 7.8125 -10.515625 C 7.207031 -10.328125 6.789062 -9.910156 6.5625 -9.265625 C 6.34375 -8.648438 6.34375 -8.097656 6.5625 -7.609375 C 6.78125 -7.128906 7.28125 -6.644531 8.0625 -6.15625 L 9.53125 -5.1875 C 10.738281 -4.40625 11.523438 -3.59375 11.890625 -2.75 C 12.253906 -1.90625 12.257812 -0.984375 11.90625 0.015625 C 11.632812 0.773438 11.21875 1.390625 10.65625 1.859375 C 10.101562 2.335938 9.421875 2.617188 8.609375 2.703125 C 7.796875 2.785156 6.878906 2.648438 5.859375 2.296875 Z M 5.859375 2.296875 "/></g></g></g><g fill="#2c2d59" fill-opacity="1"><g transform="translate(159.332891, 342.017173)"><g><path d="M 12.59375 2.953125 L 10.828125 2.53125 L 10.4375 -1.59375 L 4.46875 -2.984375 L 2.28125 0.53125 L 0.5625 0.125 L 8.71875 -12.734375 L 11 -12.1875 Z M 9.34375 -10.796875 L 5.265625 -4.265625 L 10.296875 -3.09375 L 9.5625 -10.75 Z M 9.34375 -10.796875 "/></g></g></g><g fill="#2c2d59" fill-opacity="1"><g transform="translate(173.281635, 345.291376)"><g><path d="M 3.8125 0.40625 L 2.15625 0.234375 L 3.671875 -14.0625 L 5.734375 -13.84375 L 11.5625 -2.1875 L 11.796875 -2.203125 L 12.953125 -13.078125 L 14.59375 -12.90625 L 13.078125 1.390625 L 11.3125 1.203125 L 5.3125 -11.25 L 5.046875 -11.25 Z M 3.8125 0.40625 "/></g></g></g><g fill="#2c2d59" fill-opacity="1"><g transform="translate(189.319905, 346.872004)"><g><path d="M 2.171875 -0.03125 L 1.96875 -14.40625 L 3.65625 -14.4375 L 3.75 -8.15625 L 4.0625 -8.15625 L 9.875 -14.515625 L 11.71875 -14.546875 L 11.71875 -14.296875 L 5.578125 -7.5 L 12.40625 -0.421875 L 12.40625 -0.171875 L 10.46875 -0.15625 L 4.078125 -6.6875 L 3.765625 -6.6875 L 3.859375 -0.0625 Z M 2.171875 -0.03125 "/></g></g></g><g fill="#2c2d59" fill-opacity="1"><g transform="translate(202.740918, 346.660794)"><g><path d="M 12.828125 -1.640625 L 11.03125 -1.40625 L 9.234375 -5.15625 L 3.140625 -4.375 L 2.328125 -0.296875 L 0.578125 -0.078125 L 3.703125 -14.96875 L 6.03125 -15.265625 Z M 4.96875 -13.375 L 3.453125 -5.84375 L 8.578125 -6.5 L 5.1875 -13.40625 Z M 4.96875 -13.375 "/></g></g></g><g fill="#2c2d59" fill-opacity="1"><g transform="translate(216.88525, 344.804527)"><g><path d="M 2.109375 -0.515625 L -1.34375 -14.46875 L 3.71875 -15.734375 C 4.65625 -15.960938 5.484375 -16 6.203125 -15.84375 C 6.921875 -15.695312 7.503906 -15.378906 7.953125 -14.890625 C 8.410156 -14.410156 8.738281 -13.785156 8.9375 -13.015625 C 9.144531 -12.148438 9.097656 -11.382812 8.796875 -10.71875 C 8.503906 -10.050781 7.9375 -9.460938 7.09375 -8.953125 L 7.140625 -8.75 C 7.640625 -8.6875 8.078125 -8.5 8.453125 -8.1875 C 8.835938 -7.875 9.242188 -7.367188 9.671875 -6.671875 L 11.96875 -2.953125 L 10.265625 -2.546875 L 7.828125 -6.453125 C 7.535156 -6.921875 7.242188 -7.269531 6.953125 -7.5 C 6.671875 -7.738281 6.347656 -7.878906 5.984375 -7.921875 C 5.628906 -7.972656 5.191406 -7.929688 4.671875 -7.796875 L 2.203125 -7.1875 L 3.75 -0.921875 Z M 5.25 -9.421875 C 6.125 -9.640625 6.722656 -10.003906 7.046875 -10.515625 C 7.367188 -11.023438 7.425781 -11.691406 7.21875 -12.515625 C 7.007812 -13.335938 6.644531 -13.898438 6.125 -14.203125 C 5.601562 -14.503906 4.90625 -14.546875 4.03125 -14.328125 L 0.640625 -13.484375 L 1.859375 -8.578125 Z M 5.25 -9.421875 "/></g></g></g><g fill="#2c2d59" fill-opacity="1"><g transform="translate(230.288391, 341.311632)"><g><path d="M 3.65625 -1.234375 L 2.0625 -0.6875 L -2.53125 -14.3125 L -0.9375 -14.859375 Z M 3.65625 -1.234375 "/></g></g></g><g fill="#2c2d59" fill-opacity="1"><g transform="translate(236.299816, 339.259382)"><g/></g></g><g clip-path="url(#07b9e35100)"><path fill="#2c2d59" d="M 253.027344 207.277344 C 250.582031 208.847656 244.96875 212.429688 244.882812 212.230469 C 244.800781 212.035156 247.664062 209.019531 249.117188 207.515625 C 250.285156 207.425781 251.609375 207.34375 253.027344 207.277344 Z M 235.554688 216.304688 C 235.117188 216.324219 234.671875 216.34375 234.226562 216.367188 C 235.261719 215.285156 241.636719 208.679688 244.738281 208.007812 C 245.023438 207.945312 245.441406 207.882812 245.972656 207.8125 C 243.394531 209.890625 236.996094 215.0625 235.554688 216.304688 Z M 225.234375 223.855469 C 225.0625 224.171875 224.941406 224.628906 224.953125 225.289062 C 224.96875 225.980469 225.140625 226.753906 225.339844 227.4375 C 224.40625 226.328125 223.808594 224.914062 223.554688 224.203125 C 223.554688 224.171875 223.558594 224.136719 223.5625 224.105469 C 223.820312 223.992188 224.320312 223.863281 225.234375 223.855469 Z M 226.273438 223.972656 C 226.351562 223.96875 226.421875 223.941406 226.476562 223.90625 C 227.207031 223.964844 228.105469 224.082031 229.199219 224.285156 C 231.308594 224.671875 233.273438 225.535156 234.878906 226.480469 C 237.175781 227.828125 238.714844 229.183594 238.742188 229.507812 C 238.652344 229.5625 236.351562 229.488281 233.894531 229.390625 C 231.175781 229.28125 228.316406 229.042969 227.640625 228.9375 C 227.628906 228.933594 227.609375 228.929688 227.578125 228.921875 C 227.230469 228.851562 226.90625 228.71875 226.609375 228.542969 C 226.316406 227.816406 225.808594 226.410156 225.785156 225.273438 C 225.753906 223.992188 226.273438 223.972656 226.273438 223.972656 Z M 282.929688 225.007812 C 282.929688 225.007812 280.03125 225.753906 277.375 226.71875 C 274.636719 227.710938 272.136719 228.921875 271.910156 229.300781 C 271.46875 230.050781 272.609375 230.53125 272.992188 230.546875 C 273.382812 230.566406 281.699219 230.734375 281.699219 230.476562 C 281.699219 230.21875 280.984375 229.90625 280.359375 229.941406 C 279.734375 229.980469 272.683594 229.871094 272.792969 229.503906 C 272.902344 229.136719 278.304688 226.75 280.101562 226.164062 C 281.902344 225.578125 282.929688 225.007812 282.929688 225.007812 Z M 229.28125 232.261719 C 228.714844 232.261719 228.203125 232.488281 227.832031 232.859375 C 227.460938 233.230469 227.230469 233.746094 227.230469 234.3125 C 227.230469 234.875 227.460938 235.386719 227.832031 235.757812 C 228.203125 236.128906 228.714844 236.359375 229.28125 236.359375 C 229.847656 236.359375 230.363281 236.128906 230.730469 235.757812 C 231.101562 235.386719 231.332031 234.875 231.332031 234.3125 C 231.332031 233.746094 231.101562 233.230469 230.730469 232.859375 C 230.363281 232.488281 229.847656 232.261719 229.28125 232.261719 Z M 235.507812 228.945312 C 235.734375 228.953125 235.929688 228.773438 235.941406 228.542969 C 235.949219 228.316406 235.773438 228.125 235.542969 228.113281 C 235.523438 228.113281 228.59375 227.804688 227.996094 227.382812 C 227.472656 227.007812 227.4375 225.113281 227.433594 225.105469 C 227.429688 224.878906 227.242188 224.695312 227.011719 224.699219 C 226.785156 224.703125 226.601562 224.890625 226.605469 225.125 C 226.605469 225.128906 226.644531 227.441406 227.515625 228.058594 C 228.3125 228.625 235.484375 228.941406 235.507812 228.945312 Z M 229.109375 233.695312 C 229.296875 233.507812 229.554688 233.390625 229.839844 233.390625 C 230.128906 233.390625 230.386719 233.507812 230.578125 233.695312 C 230.765625 233.882812 230.882812 234.144531 230.882812 234.433594 C 230.882812 234.71875 230.765625 234.976562 230.578125 235.164062 C 230.386719 235.351562 230.128906 235.46875 229.839844 235.46875 C 229.554688 235.46875 229.296875 235.351562 229.109375 235.164062 C 228.917969 234.976562 228.800781 234.71875 228.800781 234.433594 C 228.800781 234.144531 228.917969 233.882812 229.109375 233.695312 Z M 274.023438 234.695312 C 274.023438 234.695312 271.011719 231.246094 269.503906 230.953125 C 267.996094 230.65625 243.203125 229.996094 239.675781 231.429688 C 236.152344 232.859375 231.007812 238.550781 231.261719 239.722656 C 231.308594 239.933594 231.363281 240.109375 231.417969 240.253906 L 222.78125 240.199219 C 222.609375 240.199219 222.375 239.617188 222.230469 239.035156 L 222.222656 239.015625 C 222.175781 238.824219 222.140625 238.632812 222.125 238.460938 C 222.117188 238.351562 222.113281 238.253906 222.121094 238.171875 L 225.421875 238.148438 C 225.730469 238.148438 230.199219 237.898438 230.199219 237.59375 C 230.199219 237.289062 225.730469 237.042969 225.421875 237.042969 L 223.609375 237.054688 C 223.488281 235.527344 223.144531 230.714844 223.367188 226.453125 C 224.179688 227.925781 225.488281 229.617188 227.347656 230.007812 C 227.363281 230.011719 227.40625 230.019531 227.472656 230.027344 C 228.175781 230.140625 231.097656 230.382812 233.851562 230.496094 C 236.832031 230.613281 239.671875 230.5 239.832031 229.734375 C 239.839844 229.699219 239.84375 229.664062 239.84375 229.628906 C 239.851562 229.484375 239.796875 229.34375 239.699219 229.242188 C 239.238281 228.394531 237.664062 226.832031 235.441406 225.527344 C 233.742188 224.527344 231.648438 223.613281 229.398438 223.199219 C 226.472656 222.65625 224.730469 222.75 223.722656 222.980469 C 224.019531 221.25 224.492188 219.902344 225.230469 219.347656 C 227.832031 217.394531 235.433594 216.710938 239.222656 217.453125 C 239.507812 217.542969 239.21875 217.417969 240.039062 217.742188 C 240.863281 218.0625 246.1875 227.457031 246.738281 227.457031 C 247.289062 227.457031 244.535156 221.84375 244.238281 220.886719 C 244.0625 220.320312 243.785156 219.496094 243.855469 218.820312 C 244.039062 218.761719 244.113281 218.6875 244.113281 218.6875 C 244.113281 218.6875 244.148438 218.539062 246.132812 218.207031 C 248.117188 217.878906 266.003906 217.917969 267.253906 218.429688 C 268.503906 218.945312 268.28125 219.933594 267.988281 220.886719 C 267.691406 221.84375 264.9375 227.457031 265.492188 227.457031 C 266.039062 227.457031 270.265625 219.382812 271.660156 218.832031 C 273.058594 218.285156 280.863281 217.253906 280.863281 217.253906 C 280.863281 217.253906 271.257812 217.511719 270.394531 217.421875 C 269.53125 217.328125 268.960938 216.246094 268.339844 216.210938 C 267.988281 216.191406 259.859375 216.207031 252.757812 216.230469 C 254.449219 214.234375 259.652344 208.078125 260.054688 207.457031 C 260.136719 207.324219 260.183594 207.203125 260.203125 207.09375 C 266.152344 207.082031 271.949219 207.449219 273.9375 208.632812 C 278.179688 211.148438 281.652344 214.722656 281.652344 214.722656 C 281.652344 214.722656 277.871094 208.742188 273.167969 207.089844 C 268.464844 205.4375 247.160156 205.328125 241.980469 206.90625 C 236.800781 208.484375 231.988281 215.53125 231.988281 215.53125 L 231.886719 215.648438 C 231.472656 214.988281 230.730469 213.980469 229.832031 213.539062 C 228.433594 212.859375 221.804688 212.714844 221.476562 213.5 C 221.144531 214.292969 223.144531 216.75 224.945312 216.804688 C 226.746094 216.859375 229.816406 216.367188 230.695312 216.679688 C 230.574219 216.695312 230.449219 216.710938 230.332031 216.730469 C 225.550781 217.410156 223.429688 218.613281 222.953125 220.375 C 222.773438 221.03125 222.214844 223.007812 222.039062 225.972656 C 221.800781 230.089844 221.855469 235.371094 221.878906 237.070312 C 221.402344 237.078125 221.136719 237.382812 221.042969 237.867188 C 221.003906 238.070312 220.996094 238.304688 221.019531 238.554688 C 221.039062 238.785156 221.085938 239.035156 221.148438 239.289062 L 221.152344 239.3125 C 221.410156 240.304688 222.019531 241.296875 222.777344 241.304688 L 222.816406 241.304688 C 222.875 242.0625 223.007812 243.359375 223.238281 243.539062 C 223.296875 243.585938 223.621094 243.621094 224.121094 243.644531 L 224.125 243.644531 C 225.519531 243.71875 228.269531 243.730469 230.359375 243.722656 C 245.304688 243.894531 282.015625 244.285156 283.191406 243.90625 C 284.324219 243.539062 250.140625 243.042969 234.1875 242.832031 C 234.191406 242.800781 234.191406 242.765625 234.183594 242.734375 C 234.136719 242.398438 234.210938 241.570312 234.273438 241.019531 C 240.824219 241.050781 260.75 241.140625 282.058594 241.207031 L 282.058594 241.210938 C 283.34375 241.304688 284.714844 241.351562 284.730469 241.117188 C 284.746094 240.871094 283.28125 240.605469 281.976562 240.28125 C 257.382812 240.023438 235.152344 239.730469 234.9375 239.390625 C 234.828125 239.210938 235.046875 238.785156 235.46875 238.238281 C 242.714844 238.125 268.96875 237.550781 270.148438 237.046875 C 270.148438 237.046875 245.085938 236.566406 237.03125 236.511719 C 237.566406 235.980469 238.152344 235.4375 238.730469 234.941406 C 246.597656 234.90625 269.410156 234.300781 270.109375 234 C 270.796875 233.699219 248.039062 233.910156 240.03125 233.878906 C 240.71875 233.359375 241.316406 232.980469 241.695312 232.859375 C 243.3125 232.347656 269.136719 231.578125 270.09375 231.941406 C 271.046875 232.308594 273.507812 234.988281 273.765625 234.839844 C 274.023438 234.695312 274.023438 234.695312 274.023438 234.695312 " fill-opacity="1" fill-rule="evenodd"/></g><g clip-path="url(#a17ca99a4c)"><g clip-path="url(#9848957e36)"><path fill="#2c2d59" d="M 272.621094 291.039062 L 284.746094 291.039062 L 284.746094 302.59375 L 272.621094 302.59375 Z M 272.621094 291.039062 " fill-opacity="1" fill-rule="nonzero"/></g></g><g clip-path="url(#15db38464c)"><g clip-path="url(#ec00fd10f1)"><path fill="#2c2d59" d="M 100.300781 294.363281 L 112.425781 294.363281 L 112.425781 305.917969 L 100.300781 305.917969 Z M 100.300781 294.363281 " fill-opacity="1" fill-rule="nonzero"/></g></g><g fill="#2c2d59" fill-opacity="1"><g transform="translate(122.070979, 135.024476)"><g><path d="M 30.484375 -3.8125 L 28.453125 -19.984375 L 9.78125 -17.65625 L 0.046875 -25.21875 L -1.171875 -34.953125 L 6.40625 -44.65625 L 11.296875 -45.265625 L 13.21875 -29.9375 L 33.0625 -32.421875 L 42.5 -24.8125 L 43.828125 -14.25 L 36.28125 -4.546875 Z M 14.53125 -37.765625 L 13.5625 -45.546875 L 30.84375 -47.71875 L 39.265625 -41.140625 L 39.84375 -36.546875 L 26.59375 -34.875 L 26.046875 -39.203125 Z M 1.53125 -13.34375 L 15.90625 -15.15625 L 16.546875 -10.015625 L 27.234375 -11.34375 L 28.21875 -3.53125 L 10.421875 -1.3125 L 2.078125 -9.015625 Z M 1.53125 -13.34375 "/></g></g></g><g fill="#2c2d59" fill-opacity="1"><g transform="translate(168.073602, 129.346045)"><g><path d="M 12.578125 -31.96875 L 27.671875 -32.203125 L 28.140625 -0.421875 L 13.046875 -0.1875 Z M 1.0625 -43.546875 L 38.84375 -44.109375 L 38.984375 -34.625 L 1.203125 -34.0625 Z M 1.0625 -43.546875 "/></g></g></g><g fill="#2c2d59" fill-opacity="1"><g transform="translate(206.946742, 128.017871)"><g><path d="M 8.625 -42.828125 L 23.9375 -41.140625 L 33.40625 -20.640625 L 44.28125 -35.28125 L 41.875 -13.5 L 29.5 3.25 Z M 42.015625 4.625 L 46.78125 -38.625 L 61.1875 -37.03125 L 56.421875 6.21875 Z M 3.828125 0.421875 L 8.15625 -38.828125 L 19.09375 -14.75 L 17.265625 1.90625 Z M 3.828125 0.421875 "/></g></g></g></svg>